<svg xmlns="http://www.w3.org/2000/svg" xmlns:xlink="http://www.w3.org/1999/xlink" viewBox="0 0 10.7 15"><defs><style>.cls-1{fill:none;}.cls-2{clip-path:url(#clip-path);}.cls-3{fill:#0c2a66;fill-rule:evenodd;}</style><clipPath id="clip-path"><rect class="cls-1" width="10.7" height="15"/></clipPath></defs><title>address</title><g id="katman_2" data-name="katman 2"><g id="katman_1-2" data-name="katman 1"><g class="cls-2"><path class="cls-3" d="M5.35,0A5.36,5.36,0,0,1,10.7,5.35c0,2.43-3.16,6.75-4.92,9.42a.51.51,0,0,1-.86,0C3.16,12.1,0,7.78,0,5.35A5.32,5.32,0,0,1,5.35,0Zm0,3.34a2,2,0,0,1,1.94,2A1.92,1.92,0,0,1,5.35,7.29a2,2,0,0,1-2-1.94A2,2,0,0,1,5.35,3.34Z"/></g></g></g></svg>