<svg xmlns="http://www.w3.org/2000/svg" xmlns:xlink="http://www.w3.org/1999/xlink" viewBox="0 0 10.85 15.66"><defs><style>.cls-1{fill:none;}.cls-2{clip-path:url(#clip-path);}.cls-3,.cls-4{fill:#0c2a66;}.cls-3{fill-rule:evenodd;}</style><clipPath id="clip-path"><rect class="cls-1" x="1.28" width="8.3" height="11.63"/></clipPath></defs><title>area</title><g id="katman_2" data-name="katman 2"><g id="katman_1-2" data-name="katman 1"><g class="cls-2"><path class="cls-3" d="M5.42,0A4.15,4.15,0,0,1,9.57,4.15c0,1.88-2.45,5.23-3.82,7.3a.39.39,0,0,1-.66,0C3.73,9.38,1.28,6,1.28,4.15A4.12,4.12,0,0,1,5.42,0Zm0,2.59A1.53,1.53,0,0,1,6.93,4.15,1.49,1.49,0,0,1,5.42,5.66,1.52,1.52,0,0,1,3.87,4.15,1.57,1.57,0,0,1,5.42,2.59Z"/></g><path class="cls-4" d="M10.7,13.29,9.14,11.72a.52.52,0,0,0-.52-.11.48.48,0,0,0-.29.43v1.1H2.52V12a.47.47,0,0,0-.3-.43.46.46,0,0,0-.51.11L.14,13.29a.47.47,0,0,0,0,.67l1.57,1.57a.47.47,0,0,0,.34.13.33.33,0,0,0,.17,0,.45.45,0,0,0,.3-.43V14.1H8.33v1.09a.46.46,0,0,0,.29.43.42.42,0,0,0,.18,0,.55.55,0,0,0,.34-.13L10.7,14A.47.47,0,0,0,10.7,13.29Z"/></g></g></svg>