<svg xmlns="http://www.w3.org/2000/svg" xmlns:xlink="http://www.w3.org/1999/xlink" viewBox="0 0 15.01 15"><defs><style>.cls-1{fill:none;}.cls-2{clip-path:url(#clip-path);}.cls-3{fill:#0c2a66;}</style><clipPath id="clip-path" transform="translate(0)"><rect class="cls-1" width="15.01" height="15"/></clipPath></defs><title>contacts</title><g id="katman_2" data-name="katman 2"><g id="katman_1-2" data-name="katman 1"><g class="cls-2"><path class="cls-3" d="M14.55,10.84,12.84,9.12a1.6,1.6,0,0,0-1.13-.46,1.44,1.44,0,0,0-1,.46L9.59,10.19a.12.12,0,0,1-.15,0A10.51,10.51,0,0,1,4.79,5.57c0-.06,0-.09,0-.15L5.89,4.35a1.58,1.58,0,0,0,.46-1.14,1.44,1.44,0,0,0-.46-1L4.18.46A1.58,1.58,0,0,0,3,0,1.44,1.44,0,0,0,2,.46l-.92.92A3.73,3.73,0,0,0,.75,6.24a39.88,39.88,0,0,0,8,8,3.78,3.78,0,0,0,4.87-.34l.91-.92A1.56,1.56,0,0,0,15,11.88,1.45,1.45,0,0,0,14.55,10.84Z" transform="translate(0)"/></g></g></g></svg>