<svg xmlns="http://www.w3.org/2000/svg" xmlns:xlink="http://www.w3.org/1999/xlink" viewBox="0 0 20 20"><defs><style>.cls-1{fill:none;}.cls-2{clip-path:url(#clip-path);}.cls-3{fill:#0c2a66;}</style><clipPath id="clip-path" transform="translate(0 0)"><rect class="cls-1" width="20" height="20"/></clipPath></defs><title>food</title><g id="katman_2" data-name="katman 2"><g id="katman_1-2" data-name="katman 1"><g class="cls-2"><path class="cls-3" d="M7.65,12.33a3.71,3.71,0,0,1-1.28-.23,53.1,53.1,0,0,0-5.65,5C0,18-.27,19,.37,19.63S2,20,3,19.28c1.21-.92,3.57-4.05,6.17-7.11L9,12.07A4.13,4.13,0,0,1,7.65,12.33Z" transform="translate(0 0)"/><path class="cls-3" d="M10.77,8,12,9.24a.2.2,0,0,1,.11,0,2.84,2.84,0,0,0,3.23-.61L19.84,4a.55.55,0,0,0-.73-.81l0,0L15,7.28a.56.56,0,0,1-.74.06.54.54,0,0,1-.08-.76l0,0L18.3,2.47a.56.56,0,0,0,.06-.74.54.54,0,0,0-.76-.08s0,0,0,0L13.49,5.76a.56.56,0,0,1-.74.06.54.54,0,0,1-.08-.76l0,0L16.78.94a.55.55,0,0,0,0-.74.54.54,0,0,0-.76-.08l0,0-4.69,4.5a2.82,2.82,0,0,0-.6,3.23Z" transform="translate(0 0)"/><path class="cls-3" d="M19.61,18.1,2,.43C1.17-.37,0-.06,0,1.36,0,3.36.82,6,3.59,8.93A8.79,8.79,0,0,0,6.14,11a3,3,0,0,0,2.72.15.69.69,0,0,1,.8.24c4.35,4.93,6.35,6.85,8.1,8.12S20.64,19.13,19.61,18.1Z" transform="translate(0 0)"/></g></g></g></svg>