<svg xmlns="http://www.w3.org/2000/svg" viewBox="0 0 20.02 20"><defs><style>.cls-1{fill:#0c2a66;}</style></defs><title>grocery</title><g id="katman_2" data-name="katman 2"><g id="katman_1-2" data-name="katman 1"><path class="cls-1" d="M.44,0,.6.05,2.35,1a.45.45,0,0,1,.2.28L3.69,5.75H19.61a.42.42,0,0,1,.39.54l-1.63,7.37A.44.44,0,0,1,18,14H4.61a.92.92,0,0,0,0,1.84H14.69a2.11,2.11,0,1,1-2,2.11,2.13,2.13,0,0,1,.42-1.27H7.93a2.13,2.13,0,0,1,.43,1.27,2.08,2.08,0,0,1-2,2.1,2.07,2.07,0,0,1-2-2.1,2.13,2.13,0,0,1,.42-1.27H4.6a1.76,1.76,0,0,1-.4-3.46L1.8,1.68.21.79A.43.43,0,0,1,.05.22.39.39,0,0,1,.44,0Z"/></g></g></svg>