<svg xmlns="http://www.w3.org/2000/svg" viewBox="0 0 22.11 19"><defs><style>.cls-1{fill:#d75b42;}</style></defs><title>icon_0</title><g id="katman_2" data-name="katman 2"><g id="katman_1-2" data-name="katman 1"><path class="cls-1" d="M22.05,8.06a.8.8,0,0,0-.73-.49H20.19A9.63,9.63,0,0,0,1.84,6.07a.8.8,0,0,0,.44,1,.78.78,0,0,0,1-.44,8,8,0,0,1,15.25.91H18.1a.8.8,0,0,0-.73.49.78.78,0,0,0,.17.87l1.61,1.62a.8.8,0,0,0,.56.23.82.82,0,0,0,.56-.23l1.61-1.62A.8.8,0,0,0,22.05,8.06Z"/><path class="cls-1" d="M19.7,12a.8.8,0,0,0-1,.43,8,8,0,0,1-15.21-1H4a.81.81,0,0,0,.73-.5.79.79,0,0,0-.18-.86L3,8.44a.79.79,0,0,0-1.12,0L.23,10.06a.81.81,0,0,0-.17.86.79.79,0,0,0,.73.5h1A9.62,9.62,0,0,0,20.12,13,.8.8,0,0,0,19.7,12Z"/><path class="cls-1" d="M11.37,16.13a6.78,6.78,0,0,0,6.26-4.4L5,11.87A6.76,6.76,0,0,0,11.37,16.13Z"/></g></g></svg>