<svg xmlns="http://www.w3.org/2000/svg" xmlns:xlink="http://www.w3.org/1999/xlink" viewBox="0 0 433.58 127.08"><defs><style>.cls-1{fill:none;}.cls-2{clip-path:url(#clip-path);}.cls-3{fill:#0c2a66;}</style><clipPath id="clip-path" transform="translate(-1.62 -0.87)"><rect class="cls-1" width="150.79" height="129.89"/></clipPath></defs><title>logo</title><g id="katman_2" data-name="katman 2"><g id="katman_1-2" data-name="katman 1"><g class="cls-2"><path class="cls-1" d="M55.08,113.47h0a8.91,8.91,0,0,0,1.62,1.18,4,4,0,0,0,1.78.36,3.46,3.46,0,0,0,1.65-.3,10.76,10.76,0,0,0,1.62-1.14l.19-.15.24-.19a13.11,13.11,0,0,1,17.28,0l.25.19,0,0,0,0a7,7,0,0,0,1.58,1.11,4,4,0,0,0,1.82.35l.22,0a3.41,3.41,0,0,0,1-.3A9.28,9.28,0,0,0,86,113.48,13.16,13.16,0,0,1,95,110a12.93,12.93,0,0,1,8.7,3.3l.19.15.08.06a9.9,9.9,0,0,0,1.71,1.21,3.36,3.36,0,0,0,1.66.31,3.83,3.83,0,0,0,1.76-.36,8.93,8.93,0,0,0,1.65-1.19,14.38,14.38,0,0,1,5.59-3,61.56,61.56,0,0,0,8-8.79,8.11,8.11,0,0,0-4.71-1.42,9.38,9.38,0,0,0-6.25,2.54h0a12.55,12.55,0,0,1-2.42,1.69,7.86,7.86,0,0,1-3.56.78,7.52,7.52,0,0,1-3.45-.72,13.53,13.53,0,0,1-2.29-1.55l-.21-.17-.16-.12A9,9,0,0,0,95,100.22a9.18,9.18,0,0,0-6.34,2.54h0a12.55,12.55,0,0,1-2.42,1.69,7.86,7.86,0,0,1-3.56.78,2,2,0,0,1-.84-.19,7.79,7.79,0,0,1-2.14-.61,11.67,11.67,0,0,1-2.45-1.66l-.18-.14a9.1,9.1,0,0,0-12.38,0l-.21.16-.25.2a13.45,13.45,0,0,1-2.25,1.52,7.48,7.48,0,0,1-3.44.72,7.93,7.93,0,0,1-3.57-.78,12,12,0,0,1-2.43-1.7,9.28,9.28,0,0,0-6.35-2.55A9,9,0,0,0,40,102.65l-.21.16-.25.2a13.45,13.45,0,0,1-2.25,1.52,7.48,7.48,0,0,1-3.44.72,7.93,7.93,0,0,1-3.57-.78,10.29,10.29,0,0,1-1.87-1.24A60.55,60.55,0,0,0,38,112.87,12.51,12.51,0,0,1,46.14,110,13.29,13.29,0,0,1,55.08,113.47Z" transform="translate(-1.62 -0.87)"/><path class="cls-1" d="M21,82.34a13.52,13.52,0,0,1,8.93,3.48h0A8.59,8.59,0,0,0,31.52,87a3.88,3.88,0,0,0,1.77.36,3.43,3.43,0,0,0,1.65-.3,10.27,10.27,0,0,0,1.62-1.14l.19-.15L37,85.6a12.85,12.85,0,0,1,8.64-3.26,13.28,13.28,0,0,1,8.93,3.48h0A8.59,8.59,0,0,0,56.21,87a3.88,3.88,0,0,0,1.77.36,3.43,3.43,0,0,0,1.65-.3,10.27,10.27,0,0,0,1.62-1.14l.19-.15.25-.18A13.08,13.08,0,0,1,79,85.6l.24.18,0,0,0,0A7.51,7.51,0,0,0,80.86,87a4.16,4.16,0,0,0,1.81.34l.22,0a3.38,3.38,0,0,0,1-.3,9.27,9.27,0,0,0,1.64-1.18,13.19,13.19,0,0,1,8.94-3.49,12.93,12.93,0,0,1,8.7,3.3l.19.15.08.06a9.9,9.9,0,0,0,1.71,1.21,3.36,3.36,0,0,0,1.66.31,3.75,3.75,0,0,0,1.77-.36,9.27,9.27,0,0,0,1.64-1.18,13.43,13.43,0,0,1,8.49-3.46,1.18,1.18,0,0,1,.27,0h.18l.21,0a12.92,12.92,0,0,1,8.25,3.24l.24.18,0,0,0,0A7.76,7.76,0,0,0,129.5,87a4.25,4.25,0,0,0,1.82.34,1.89,1.89,0,0,1,.79.16A60.5,60.5,0,1,0,15.2,65.59a60.8,60.8,0,0,0,2.44,17,2,2,0,0,1,1-.25Z" transform="translate(-1.62 -0.87)"/><path class="cls-1" d="M30.38,99.64l0,0h0A8.77,8.77,0,0,0,32,100.83a3.83,3.83,0,0,0,1.78.36,3.43,3.43,0,0,0,1.65-.3,10.49,10.49,0,0,0,1.62-1.13l.19-.15.24-.19a12.92,12.92,0,0,1,8.64-3.26,13.29,13.29,0,0,1,8.94,3.49h0a8.77,8.77,0,0,0,1.62,1.17,3.83,3.83,0,0,0,1.78.36,3.43,3.43,0,0,0,1.65-.3,10.49,10.49,0,0,0,1.62-1.13l.19-.15.24-.19a13.08,13.08,0,0,1,17.28,0l.25.19,0,0,0,0a7.38,7.38,0,0,0,1.58,1.11,4.07,4.07,0,0,0,1.82.34l.22,0a3.13,3.13,0,0,0,1-.3A8.34,8.34,0,0,0,86,99.65,13.16,13.16,0,0,1,95,96.16a12.89,12.89,0,0,1,8.7,3.31l.19.15.08.06a10.51,10.51,0,0,0,1.71,1.21,3.51,3.51,0,0,0,1.66.3,3.71,3.71,0,0,0,1.76-.36,8.34,8.34,0,0,0,1.65-1.18,13.44,13.44,0,0,1,8.49-3.46,2.06,2.06,0,0,1,.26,0h.18a1.33,1.33,0,0,1,.21,0,12.14,12.14,0,0,1,6.72,2.1,59.35,59.35,0,0,0,3.88-7,7.5,7.5,0,0,1-2.67-.68A10.81,10.81,0,0,1,125.35,89l-.18-.14a9,9,0,0,0-6.1-2.43,9.4,9.4,0,0,0-6.25,2.54h0a12.85,12.85,0,0,1-2.42,1.68,7.8,7.8,0,0,1-3.57.78,7.42,7.42,0,0,1-3.45-.72,12.89,12.89,0,0,1-2.28-1.55,1.84,1.84,0,0,1-.22-.17l-.15-.12a9,9,0,0,0-6.24-2.47,9.18,9.18,0,0,0-6.34,2.55h0a12.85,12.85,0,0,1-2.42,1.68,7.8,7.8,0,0,1-3.57.78,1.91,1.91,0,0,1-.83-.19,7.28,7.28,0,0,1-2.14-.61A10.81,10.81,0,0,1,76.7,89l-.18-.14a9.08,9.08,0,0,0-12.39,0l-.21.16-.25.2a13.31,13.31,0,0,1-2.24,1.51,7.42,7.42,0,0,1-3.45.72,7.8,7.8,0,0,1-3.57-.78A13,13,0,0,1,52,89a9.27,9.27,0,0,0-6.34-2.56,9,9,0,0,0-6.2,2.44l-.2.16-.26.2a13.31,13.31,0,0,1-2.24,1.51,7.42,7.42,0,0,1-3.45.72,7.8,7.8,0,0,1-3.57-.78A13,13,0,0,1,27.29,89,9.4,9.4,0,0,0,21,86.39H18.88a59.57,59.57,0,0,0,4.76,10,2.56,2.56,0,0,1,.39,0A14,14,0,0,1,30.38,99.64Z" transform="translate(-1.62 -0.87)"/><path class="cls-1" d="M103.87,118.35a13,13,0,0,1-2.29-1.55l-.21-.17-.16-.12A9,9,0,0,0,95,114a9.18,9.18,0,0,0-6.34,2.55h0a12.53,12.53,0,0,1-2.42,1.68,7.73,7.73,0,0,1-3.56.78,2,2,0,0,1-.84-.19,7.46,7.46,0,0,1-2.14-.61,11.28,11.28,0,0,1-2.45-1.65l-.18-.14a9.07,9.07,0,0,0-12.38,0l-.21.16-.25.2a13.4,13.4,0,0,1-2.25,1.51,7.36,7.36,0,0,1-3.44.72,7.8,7.8,0,0,1-3.57-.78,12,12,0,0,1-2.43-1.7A9.32,9.32,0,0,0,46.14,114a8.06,8.06,0,0,0-4.73,1.38,60.47,60.47,0,0,0,63.29,3.27A5.37,5.37,0,0,1,103.87,118.35Z" transform="translate(-1.62 -0.87)"/><path class="cls-3" d="M27.29,89a13,13,0,0,0,2.43,1.69,7.8,7.8,0,0,0,3.57.78,7.42,7.42,0,0,0,3.45-.72A13.31,13.31,0,0,0,39,89.19l.26-.2.2-.16a9,9,0,0,1,6.2-2.44A9.27,9.27,0,0,1,52,89a13,13,0,0,0,2.43,1.69,7.8,7.8,0,0,0,3.57.78,7.42,7.42,0,0,0,3.45-.72,13.31,13.31,0,0,0,2.24-1.51l.25-.2.21-.16a9.08,9.08,0,0,1,12.39,0l.18.14a10.81,10.81,0,0,0,2.45,1.65,7.28,7.28,0,0,0,2.14.61,2,2,0,0,1,.83-3.86,5.61,5.61,0,0,0,.77-.06l-.22,0A4.16,4.16,0,0,1,80.86,87a7.51,7.51,0,0,1-1.59-1.12l0,0,0,0L79,85.6a13.08,13.08,0,0,0-17.28,0l-.25.18-.19.15a10.27,10.27,0,0,1-1.62,1.14,3.43,3.43,0,0,1-1.65.3A3.88,3.88,0,0,1,56.21,87a8.59,8.59,0,0,1-1.63-1.18h0a13.28,13.28,0,0,0-8.93-3.48A12.85,12.85,0,0,0,37,85.6l-.25.18-.19.15a10.27,10.27,0,0,1-1.62,1.14,3.43,3.43,0,0,1-1.65.3A3.88,3.88,0,0,1,31.52,87a8.59,8.59,0,0,1-1.63-1.18h0A13.52,13.52,0,0,0,21,82.34H18.6a2,2,0,0,0-1,.25c.38,1.28.78,2.56,1.24,3.8H21A9.4,9.4,0,0,1,27.29,89Z" transform="translate(-1.62 -0.87)"/><path class="cls-3" d="M119.16,82.34h-.09l.3,0Z" transform="translate(-1.62 -0.87)"/><path class="cls-3" d="M117,84.37a2,2,0,0,1,1.76-2,13.43,13.43,0,0,0-8.49,3.46A9.27,9.27,0,0,1,108.58,87a3.75,3.75,0,0,1-1.77.36,3.36,3.36,0,0,1-1.66-.31,9.9,9.9,0,0,1-1.71-1.21l-.08-.06-.19-.15a12.93,12.93,0,0,0-8.7-3.3,13.19,13.19,0,0,0-8.94,3.49A9.27,9.27,0,0,1,83.89,87a3.38,3.38,0,0,1-1,.3,5.61,5.61,0,0,1-.77.06,2,2,0,0,0-.83,3.86,1.91,1.91,0,0,0,.83.19,7.8,7.8,0,0,0,3.57-.78A12.85,12.85,0,0,0,88.11,89h0a9.18,9.18,0,0,1,6.34-2.55,9,9,0,0,1,6.24,2.47l.15.12a1.84,1.84,0,0,0,.22.17,12.89,12.89,0,0,0,2.28,1.55,7.42,7.42,0,0,0,3.45.72,7.8,7.8,0,0,0,3.57-.78A12.85,12.85,0,0,0,112.8,89h0a9.4,9.4,0,0,1,6.25-2.54H119A2,2,0,0,1,117,84.37Z" transform="translate(-1.62 -0.87)"/><path class="cls-3" d="M129.5,87a7.76,7.76,0,0,1-1.58-1.12l0,0,0,0-.24-.18a12.92,12.92,0,0,0-8.25-3.24l-.3,0H119a1.18,1.18,0,0,0-.27,0,2,2,0,0,0,.27,4h.09a9,9,0,0,1,6.1,2.43l.18.14a10.81,10.81,0,0,0,2.45,1.65,7.5,7.5,0,0,0,2.67.68c.59-1.26,1.14-2.55,1.64-3.85a1.89,1.89,0,0,0-.79-.16A4.25,4.25,0,0,1,129.5,87Z" transform="translate(-1.62 -0.87)"/><path class="cls-3" d="M33.8,105.25a7.48,7.48,0,0,0,3.44-.72A13.45,13.45,0,0,0,39.49,103l.25-.2.21-.16a9,9,0,0,1,6.19-2.43,9.28,9.28,0,0,1,6.35,2.55,12,12,0,0,0,2.43,1.7,7.93,7.93,0,0,0,3.57.78,7.48,7.48,0,0,0,3.44-.72A13.45,13.45,0,0,0,64.18,103l.25-.2.21-.16a9.1,9.1,0,0,1,12.38,0l.18.14a11.67,11.67,0,0,0,2.45,1.66,7.79,7.79,0,0,0,2.14.61,2,2,0,0,1,.84-3.87,4.38,4.38,0,0,0,.77-.06l-.22,0a4.07,4.07,0,0,1-1.82-.34,7.38,7.38,0,0,1-1.58-1.11l0,0,0,0-.25-.19a13.08,13.08,0,0,0-17.28,0l-.24.19-.19.15a10.49,10.49,0,0,1-1.62,1.13,3.43,3.43,0,0,1-1.65.3,3.83,3.83,0,0,1-1.78-.36,8.77,8.77,0,0,1-1.62-1.17h0a13.29,13.29,0,0,0-8.94-3.49,12.92,12.92,0,0,0-8.64,3.26l-.24.19-.19.15a10.49,10.49,0,0,1-1.62,1.13,3.43,3.43,0,0,1-1.65.3,3.83,3.83,0,0,1-1.78-.36,8.77,8.77,0,0,1-1.62-1.17h0l0,0A14,14,0,0,0,24,96.42a2.56,2.56,0,0,0-.39,0,59.75,59.75,0,0,0,4.72,6.84,10.29,10.29,0,0,0,1.87,1.24A7.93,7.93,0,0,0,33.8,105.25Z" transform="translate(-1.62 -0.87)"/><path class="cls-3" d="M117.46,98.19a2,2,0,0,1,1.76-2,13.44,13.44,0,0,0-8.49,3.46,8.34,8.34,0,0,1-1.65,1.18,3.71,3.71,0,0,1-1.76.36,3.51,3.51,0,0,1-1.66-.3A10.51,10.51,0,0,1,104,99.68l-.08-.06-.19-.15A12.89,12.89,0,0,0,95,96.16,13.16,13.16,0,0,0,86,99.65a8.34,8.34,0,0,1-1.65,1.18,3.13,3.13,0,0,1-1,.3,4.38,4.38,0,0,1-.77.06,2,2,0,0,0-.84,3.87,2,2,0,0,0,.84.19,7.86,7.86,0,0,0,3.56-.78,12.55,12.55,0,0,0,2.42-1.69h0A9.18,9.18,0,0,1,95,100.22a9,9,0,0,1,6.23,2.47l.16.12.21.17a13.53,13.53,0,0,0,2.29,1.55,7.52,7.52,0,0,0,3.45.72,7.86,7.86,0,0,0,3.56-.78,12.55,12.55,0,0,0,2.42-1.69h0a9.38,9.38,0,0,1,6.25-2.54h-.1A2,2,0,0,1,117.46,98.19Z" transform="translate(-1.62 -0.87)"/><path class="cls-3" d="M119.66,96.16h-.08l.29,0A1.33,1.33,0,0,0,119.66,96.16Z" transform="translate(-1.62 -0.87)"/><path class="cls-3" d="M119.58,96.17h-.1a2.06,2.06,0,0,0-.26,0,2,2,0,0,0,.26,4h.1a8.11,8.11,0,0,1,4.71,1.42c.8-1.09,1.56-2.21,2.3-3.35a12.14,12.14,0,0,0-6.72-2.1Z" transform="translate(-1.62 -0.87)"/><path class="cls-3" d="M52.49,116.59a12,12,0,0,0,2.43,1.7,7.8,7.8,0,0,0,3.57.78,7.36,7.36,0,0,0,3.44-.72,13.4,13.4,0,0,0,2.25-1.51l.25-.2.21-.16a9.07,9.07,0,0,1,12.38,0l.18.14a11.28,11.28,0,0,0,2.45,1.65,7.46,7.46,0,0,0,2.14.61,2,2,0,0,1,.84-3.86,5.61,5.61,0,0,0,.77-.06l-.22,0a4,4,0,0,1-1.82-.35,7,7,0,0,1-1.58-1.11l0,0,0,0-.25-.19a13.11,13.11,0,0,0-17.28,0l-.24.19-.19.15a10.76,10.76,0,0,1-1.62,1.14,3.46,3.46,0,0,1-1.65.3,4,4,0,0,1-1.78-.36,8.91,8.91,0,0,1-1.62-1.18h0A13.29,13.29,0,0,0,46.14,110,12.51,12.51,0,0,0,38,112.87c1.11.89,2.24,1.74,3.42,2.55A8.06,8.06,0,0,1,46.14,114,9.32,9.32,0,0,1,52.49,116.59Z" transform="translate(-1.62 -0.87)"/><path class="cls-3" d="M109.08,114.66a3.83,3.83,0,0,1-1.76.36,3.36,3.36,0,0,1-1.66-.31A9.9,9.9,0,0,1,104,113.5l-.08-.06-.19-.15A12.93,12.93,0,0,0,95,110,13.16,13.16,0,0,0,86,113.48a9.28,9.28,0,0,1-1.65,1.18,3.41,3.41,0,0,1-1,.3,5.61,5.61,0,0,1-.77.06,2,2,0,0,0-.84,3.86,2,2,0,0,0,.84.19,7.73,7.73,0,0,0,3.56-.78,12.53,12.53,0,0,0,2.42-1.68h0A9.18,9.18,0,0,1,95,114a9,9,0,0,1,6.23,2.47l.16.12.21.17a13,13,0,0,0,2.29,1.55,5.37,5.37,0,0,0,.83.34,61.18,61.18,0,0,0,11.62-8.26,14.38,14.38,0,0,0-5.59,3A8.93,8.93,0,0,1,109.08,114.66Z" transform="translate(-1.62 -0.87)"/></g><path class="cls-3" d="M240.57,2.16V52.78h-6.51V21L216,46.6h-.14L198.16,21.9V52.78h-6.38V2.16h.07L216,36.36,240.5,2.16ZM282,24.69V52.78h-6.31V48.16a14.94,14.94,0,0,1-4.35,3.67,12.81,12.81,0,0,1-6.44,1.63,15.48,15.48,0,0,1-7.26-1.7,13,13,0,0,1-5.09-5.09,16.12,16.12,0,0,1-1.84-7.94,16.25,16.25,0,0,1,1.9-8,13.78,13.78,0,0,1,5.23-5.29,14.49,14.49,0,0,1,7.33-1.9,12.07,12.07,0,0,1,6.24,1.56,12.83,12.83,0,0,1,4.28,4.07l.47-4.47ZM266.54,48.23a9.32,9.32,0,0,0,5.91-1.9A8.73,8.73,0,0,0,275.64,41V35.47a8.52,8.52,0,0,0-3.4-4.81,9.66,9.66,0,0,0-5.9-1.9A9.29,9.29,0,0,0,261.66,30a9.19,9.19,0,0,0-3.4,3.46,10,10,0,0,0-1.22,5,9.79,9.79,0,0,0,1.29,5,10.09,10.09,0,0,0,3.46,3.59A9.13,9.13,0,0,0,266.54,48.23Zm53.13-23.54-15,28.9h-.34l-15.6-28.9h7.53l8.48,17.91,7.87-17.91Zm13.1,0V52.78h-6.31V24.69ZM326,14.57a3.22,3.22,0,0,1,1.15-2.51,3.87,3.87,0,0,1,2.65-1,3.65,3.65,0,0,1,2.58,1,3.31,3.31,0,0,1,0,5,3.66,3.66,0,0,1-2.58,1,3.88,3.88,0,0,1-2.65-1A3.19,3.19,0,0,1,326,14.57ZM230.66,120.64h-6.58V99.12H198.36v21.52h-6.58V71.57h6.58V92.81h25.72V71.57h6.58Zm41.41-28.1v28.1h-6.31V116a15.06,15.06,0,0,1-4.34,3.67,12.82,12.82,0,0,1-6.45,1.62,15.48,15.48,0,0,1-7.26-1.69,13.24,13.24,0,0,1-5.09-5.09,18,18,0,0,1,.07-16,13.57,13.57,0,0,1,5.23-5.29,14.43,14.43,0,0,1,7.32-1.9A12.11,12.11,0,0,1,261.49,93,12.71,12.71,0,0,1,265.76,97l.48-4.48Zm-15.4,23.55a9.29,9.29,0,0,0,5.9-1.9,8.66,8.66,0,0,0,3.19-5.29v-5.57a8.52,8.52,0,0,0-3.39-4.82,9.74,9.74,0,0,0-5.9-1.9,9.36,9.36,0,0,0-4.69,1.23,9.16,9.16,0,0,0-3.39,3.46,9.92,9.92,0,0,0-1.22,5,9.72,9.72,0,0,0,1.29,5,10.12,10.12,0,0,0,3.46,3.6A9.13,9.13,0,0,0,256.67,116.09Zm32.5-16.9a12.66,12.66,0,0,1,3.05-4.07,15.94,15.94,0,0,1,4.28-2.71,11.21,11.21,0,0,1,3.93-1l-.27,6.31a10.52,10.52,0,0,0-5.56,1.22,10.14,10.14,0,0,0-5.23,8.89v12.83h-6.31V92.54h5.63Zm25.71-6.65v28.1h-6.31V92.54ZM308.1,82.43a3.22,3.22,0,0,1,1.15-2.51,3.88,3.88,0,0,1,2.65-1,3.66,3.66,0,0,1,2.58,1,3.31,3.31,0,0,1,0,5,3.66,3.66,0,0,1-2.58,1,3.88,3.88,0,0,1-2.65-1A3.21,3.21,0,0,1,308.1,82.43ZM335,80.19V92.61h7.67v5H335v23h-6.38v-23h-5.16v-5h5.16V80.19Zm44.2,12.35v28.1h-6.31V116a15.19,15.19,0,0,1-4.34,3.67,12.82,12.82,0,0,1-6.45,1.62,15.48,15.48,0,0,1-7.26-1.69,13.17,13.17,0,0,1-5.09-5.09,18,18,0,0,1,.07-16A13.62,13.62,0,0,1,355,93.29a14.49,14.49,0,0,1,7.33-1.9A12,12,0,0,1,368.57,93,12.74,12.74,0,0,1,372.85,97l.47-4.48Zm-15.4,23.55a9.31,9.31,0,0,0,5.9-1.9,8.71,8.71,0,0,0,3.19-5.29v-5.57a8.52,8.52,0,0,0-3.39-4.82,9.75,9.75,0,0,0-5.91-1.9,9.35,9.35,0,0,0-4.68,1.23,9.16,9.16,0,0,0-3.39,3.46,10.39,10.39,0,0,0,.07,9.9,10.12,10.12,0,0,0,3.46,3.6A9.11,9.11,0,0,0,363.76,116.09Zm62.42-24.7a8.84,8.84,0,0,1,6.44,2.31,8.42,8.42,0,0,1,2.58,6.1v20.84h-6.31V102.11c-.13-3.3-1.63-5-4.48-5.22A7.12,7.12,0,0,0,420,98.38a9.63,9.63,0,0,0-3,3.8,12.85,12.85,0,0,0-1.16,5.09v13.37h-6.37V102.11q-.21-5-4.62-5.22a7,7,0,0,0-4.34,1.49,9.61,9.61,0,0,0-3,3.87,12.14,12.14,0,0,0-1.08,5.09v13.3h-6.31V92.54h5.7l.47,5.3a12.12,12.12,0,0,1,4.41-4.75,12.28,12.28,0,0,1,6.45-1.7,9.61,9.61,0,0,1,5.7,1.63,7.06,7.06,0,0,1,3,4.34A12.9,12.9,0,0,1,420.34,93,11.13,11.13,0,0,1,426.18,91.39Z" transform="translate(-1.62 -0.87)"/><path class="cls-3" d="M26,75.42a2,2,0,0,1-1.41-.59L14.83,65,5,74.83A2,2,0,0,1,2.21,72L13.42,60.79a2,2,0,0,1,2.83,0L27.46,72a2,2,0,0,1,0,2.82A2,2,0,0,1,26,75.42Z" transform="translate(-1.62 -0.87)"/><path class="cls-3" d="M137.2,68.54a2,2,0,0,1-1.42-.59L124.57,56.74a2,2,0,0,1,2.83-2.83l9.8,9.8,9.79-9.8a2,2,0,0,1,2.83,2.83L138.61,68A2,2,0,0,1,137.2,68.54Z" transform="translate(-1.62 -0.87)"/></g><g id="katman_2-2" data-name="katman 2"><path class="cls-3" d="M76.16,128A63.61,63.61,0,0,1,12.62,64.41a2,2,0,0,1,4,0A59.55,59.55,0,0,0,131.14,87.3a2,2,0,1,1,3.69,1.54A63.39,63.39,0,0,1,76.16,128Z" transform="translate(-1.62 -0.87)"/><path class="cls-3" d="M137.7,66.41a2,2,0,0,1-2-2A59.55,59.55,0,0,0,20.89,42.22a2,2,0,1,1-3.71-1.5A63.55,63.55,0,0,1,139.7,64.41,2,2,0,0,1,137.7,66.41Z" transform="translate(-1.62 -0.87)"/></g></g></svg>