<svg xmlns="http://www.w3.org/2000/svg" xmlns:xlink="http://www.w3.org/1999/xlink" viewBox="0 0 26.63 22.78"><defs><style>.cls-1{fill:none;}.cls-2{clip-path:url(#clip-path);}.cls-3{fill:#0c2a66;}</style><clipPath id="clip-path" transform="translate(-0.32 -0.15)"><rect class="cls-1" width="27.02" height="23.27"/></clipPath></defs><title>miniLogo</title><g id="katman_2" data-name="katman 2"><g id="katman_1-2" data-name="katman 1"><g id="katman_2-2" data-name="katman 2"><g id="katman_1-2-2" data-name="katman 1-2"><g class="cls-2"><path class="cls-1" d="M9.87,20.33h0a1.54,1.54,0,0,0,.29.21.71.71,0,0,0,.32.07.58.58,0,0,0,.29-.06,1.49,1.49,0,0,0,.29-.2l0,0,0,0a2.35,2.35,0,0,1,3.1,0l0,0h0a1.15,1.15,0,0,0,.29.2.59.59,0,0,0,.32.06h0a.41.41,0,0,0,.18,0,1.21,1.21,0,0,0,.3-.2A2.38,2.38,0,0,1,17,19.71a2.35,2.35,0,0,1,1.56.59l0,0h0a2.44,2.44,0,0,0,.31.22.58.58,0,0,0,.29.05.87.87,0,0,0,.32-.06,1.48,1.48,0,0,0,.29-.22,2.58,2.58,0,0,1,1-.53,11.93,11.93,0,0,0,1.43-1.58,1.42,1.42,0,0,0-.85-.25,1.65,1.65,0,0,0-1.11.45h0a2.14,2.14,0,0,1-.44.3,1.3,1.3,0,0,1-.64.14,1.18,1.18,0,0,1-.61-.13,1.94,1.94,0,0,1-.41-.27l0,0,0,0A1.55,1.55,0,0,0,17,18a1.63,1.63,0,0,0-1.13.45h0a2.69,2.69,0,0,1-.44.31,1.39,1.39,0,0,1-.64.13.4.4,0,0,1-.15,0,1.27,1.27,0,0,1-.38-.11,1.9,1.9,0,0,1-.44-.3l0,0a1.63,1.63,0,0,0-2.22,0l0,0,0,0a2.63,2.63,0,0,1-.4.28,1.35,1.35,0,0,1-.62.12,1.41,1.41,0,0,1-.64-.13,2.69,2.69,0,0,1-.44-.31A1.69,1.69,0,0,0,8.28,18a1.62,1.62,0,0,0-1.11.44l0,0,0,0a2.8,2.8,0,0,1-.4.27,1.42,1.42,0,0,1-.61.13,1.5,1.5,0,0,1-.64-.14,2,2,0,0,1-.34-.22,11.19,11.19,0,0,0,1.72,1.72,2.22,2.22,0,0,1,1.46-.51A2.38,2.38,0,0,1,9.87,20.33Z" transform="translate(-0.32 -0.15)"/><path class="cls-1" d="M3.76,14.75a2.44,2.44,0,0,1,1.6.63h0a1.54,1.54,0,0,0,.29.21.69.69,0,0,0,.31.06.6.6,0,0,0,.3-.05,1.94,1.94,0,0,0,.29-.21l0,0,0,0a2.34,2.34,0,0,1,1.55-.59,2.39,2.39,0,0,1,1.6.63h0a1.94,1.94,0,0,0,.29.21.7.7,0,0,0,.32.06.58.58,0,0,0,.29-.05,1.54,1.54,0,0,0,.29-.21l0,0,0,0a2.33,2.33,0,0,1,3.1,0l0,0h0a1.06,1.06,0,0,0,.29.22.87.87,0,0,0,.32.06h0L15,15.6a1.29,1.29,0,0,0,.3-.22,2.34,2.34,0,0,1,1.6-.62,2.37,2.37,0,0,1,1.56.59l0,0h0a2.11,2.11,0,0,0,.31.21.52.52,0,0,0,.3.06.87.87,0,0,0,.32-.06,1.48,1.48,0,0,0,.29-.22,2.51,2.51,0,0,1,1.52-.62h.12a2.38,2.38,0,0,1,1.48.58l0,0h0a1.94,1.94,0,0,0,.29.21,1,1,0,0,0,.33.06.32.32,0,0,1,.14,0A10.84,10.84,0,1,0,3.46,7.84a10.69,10.69,0,0,0-.74,3.91,10.87,10.87,0,0,0,.44,3.05.41.41,0,0,1,.18-.05Z" transform="translate(-0.32 -0.15)"/><path class="cls-1" d="M5.44,17.85h0a1.48,1.48,0,0,0,.29.22.7.7,0,0,0,.32.06.61.61,0,0,0,.3-.05,1.94,1.94,0,0,0,.29-.21l0,0,0,0a2.35,2.35,0,0,1,3.15.05h0a1,1,0,0,0,.29.2.67.67,0,0,0,.31.07.6.6,0,0,0,.3-.05,1.94,1.94,0,0,0,.29-.21l0,0,.05,0a2.33,2.33,0,0,1,3.09,0l0,0h0a1.38,1.38,0,0,0,.28.19.75.75,0,0,0,.33.07h0a.64.64,0,0,0,.18-.06,1.89,1.89,0,0,0,.3-.19,2.36,2.36,0,0,1,3.17,0l0,0h0a1.73,1.73,0,0,0,.31.22.58.58,0,0,0,.29.05.7.7,0,0,0,.32-.06,1.54,1.54,0,0,0,.29-.21,2.4,2.4,0,0,1,1.53-.62h.11a2.18,2.18,0,0,1,1.21.37,10.15,10.15,0,0,0,.69-1.25,1.36,1.36,0,0,1-.48-.12,2.23,2.23,0,0,1-.44-.29l0,0a1.6,1.6,0,0,0-1.1-.43,1.69,1.69,0,0,0-1.12.45h0a1.84,1.84,0,0,1-.43.3,1.3,1.3,0,0,1-.64.14,1.24,1.24,0,0,1-.62-.13,2.63,2.63,0,0,1-.41-.27l0,0,0,0a1.64,1.64,0,0,0-2.26,0h0a2.2,2.2,0,0,1-.43.3,1.42,1.42,0,0,1-.64.14.28.28,0,0,1-.15,0,1.26,1.26,0,0,1-.38-.1,2.66,2.66,0,0,1-.45-.29l0,0a1.63,1.63,0,0,0-2.22,0l0,0,0,0a3.51,3.51,0,0,1-.4.27,1.5,1.5,0,0,1-.62.13,1.57,1.57,0,0,1-.64-.14,2.74,2.74,0,0,1-.43-.3,1.64,1.64,0,0,0-1.14-.46,1.59,1.59,0,0,0-1.11.44l0,0,0,0a3.51,3.51,0,0,1-.4.27,1.36,1.36,0,0,1-.62.13,1.42,1.42,0,0,1-.64-.14,2.28,2.28,0,0,1-.44-.3,1.7,1.7,0,0,0-1.13-.47H3.38a10.9,10.9,0,0,0,.86,1.79h.07A2.45,2.45,0,0,1,5.44,17.85Z" transform="translate(-0.32 -0.15)"/><path class="cls-1" d="M18.61,21.21a3,3,0,0,1-.41-.28l0,0,0,0A1.57,1.57,0,0,0,17,20.43a1.63,1.63,0,0,0-1.13.45h0a2.14,2.14,0,0,1-.44.3,1.28,1.28,0,0,1-.64.14.4.4,0,0,1-.15,0,1.27,1.27,0,0,1-.38-.11,1.9,1.9,0,0,1-.44-.3l0,0a1.63,1.63,0,0,0-2.22,0l0,0,0,0a2,2,0,0,1-.4.27,1.24,1.24,0,0,1-.62.13,1.3,1.3,0,0,1-.64-.14,2.14,2.14,0,0,1-.44-.3,1.67,1.67,0,0,0-1.14-.45,1.43,1.43,0,0,0-.85.24,10.83,10.83,0,0,0,11.34.59Z" transform="translate(-0.32 -0.15)"/><path class="cls-3" d="M4.89,16a2.28,2.28,0,0,0,.44.3,1.35,1.35,0,0,0,.63.14,1.31,1.31,0,0,0,.62-.13A2.29,2.29,0,0,0,7,16l0,0,0,0a1.59,1.59,0,0,1,1.11-.44A1.63,1.63,0,0,1,9.32,16a2.55,2.55,0,0,0,.43.3,1.42,1.42,0,0,0,.64.14,1.31,1.31,0,0,0,.62-.13,2.8,2.8,0,0,0,.4-.27l.05,0,0,0a1.61,1.61,0,0,1,2.22,0l0,0a1.9,1.9,0,0,0,.44.3,1.66,1.66,0,0,0,.38.11.35.35,0,0,1-.2-.47.36.36,0,0,1,.35-.23h.1a.72.72,0,0,1-.33-.06,1.87,1.87,0,0,1-.29-.2h0l0-.05a2.33,2.33,0,0,0-3.09,0l-.05,0,0,0-.29.2a.6.6,0,0,1-.3.05.59.59,0,0,1-.32-.06,1.94,1.94,0,0,1-.29-.21h0a2.39,2.39,0,0,0-1.6-.63,2.34,2.34,0,0,0-1.55.59l0,0,0,0-.29.2a.6.6,0,0,1-.3.05.57.57,0,0,1-.31-.06,1.27,1.27,0,0,1-.29-.21h0a2.44,2.44,0,0,0-1.6-.63H3.33a.41.41,0,0,0-.18.05c.07.23.14.46.23.68h.38A1.7,1.7,0,0,1,4.89,16Z" transform="translate(-0.32 -0.15)"/><path class="cls-3" d="M21.35,14.75h0Z" transform="translate(-0.32 -0.15)"/><path class="cls-3" d="M21,15.12a.36.36,0,0,1,.32-.36,2.38,2.38,0,0,0-1.52.62,2,2,0,0,1-.3.21.59.59,0,0,1-.32.06.61.61,0,0,1-.3-.05,2.18,2.18,0,0,1-.31-.22h0l0,0a2.37,2.37,0,0,0-1.56-.59,2.3,2.3,0,0,0-1.6.63,1.61,1.61,0,0,1-.3.21.61.61,0,0,1-.18.05h-.14a.36.36,0,0,0-.37.34.34.34,0,0,0,.23.35.23.23,0,0,0,.14,0,1.39,1.39,0,0,0,.64-.14,2.57,2.57,0,0,0,.44-.29h0a1.6,1.6,0,0,1,1.13-.46,1.64,1.64,0,0,1,1.12.44l0,0s0,0,0,0a2,2,0,0,0,.41.28,1.29,1.29,0,0,0,.61.13,1.28,1.28,0,0,0,.64-.14,2.28,2.28,0,0,0,.44-.3h0a1.68,1.68,0,0,1,1.12-.46h0a.36.36,0,0,1-.36-.36Z" transform="translate(-0.32 -0.15)"/><path class="cls-3" d="M23.2,15.59a1.79,1.79,0,0,1-.28-.2h0l0,0a2.34,2.34,0,0,0-1.48-.59h-.13a.37.37,0,0,0-.33.39.34.34,0,0,0,.38.33h0a1.61,1.61,0,0,1,1.09.44l0,0a2.14,2.14,0,0,0,.44.3,1.36,1.36,0,0,0,.48.12,6.76,6.76,0,0,0,.29-.69.32.32,0,0,0-.14,0A1,1,0,0,1,23.2,15.59Z" transform="translate(-0.32 -0.15)"/><path class="cls-3" d="M6.06,18.86a1.42,1.42,0,0,0,.61-.13,2.9,2.9,0,0,0,.41-.27l0,0,0,0A1.58,1.58,0,0,1,8.27,18a1.67,1.67,0,0,1,1.14.45,2.24,2.24,0,0,0,.43.31,1.57,1.57,0,0,0,.64.14,1.5,1.5,0,0,0,.62-.13,3.51,3.51,0,0,0,.4-.27l0,0,0,0a1.63,1.63,0,0,1,2.22,0l0,0a2.57,2.57,0,0,0,.44.29,1.27,1.27,0,0,0,.38.11.36.36,0,0,1-.21-.46.37.37,0,0,1,.37-.23h.09a.87.87,0,0,1-.32-.06,1.87,1.87,0,0,1-.29-.2h0l0,0a2.37,2.37,0,0,0-3.1,0l0,0,0,0-.29.2a.63.63,0,0,1-.3.05.7.7,0,0,1-.32-.06,1.94,1.94,0,0,1-.29-.21h0a2.39,2.39,0,0,0-1.6-.63,2.34,2.34,0,0,0-1.55.59l0,0,0,0a2.11,2.11,0,0,1-.29.2.58.58,0,0,1-.29.05.59.59,0,0,1-.32-.06,1.94,1.94,0,0,1-.29-.21h0a2.47,2.47,0,0,0-1.16-.59.09.09,0,0,0-.07,0,11.11,11.11,0,0,0,.85,1.22,1.46,1.46,0,0,0,.33.22A1.44,1.44,0,0,0,6.06,18.86Z" transform="translate(-0.32 -0.15)"/><path class="cls-3" d="M21.05,17.59a.34.34,0,0,1,.31-.35,2.4,2.4,0,0,0-1.52.62,1.61,1.61,0,0,1-.3.21.87.87,0,0,1-.61,0l-.3-.22h0l0,0A2.32,2.32,0,0,0,17,17.23a2.35,2.35,0,0,0-1.61.63,1.61,1.61,0,0,1-.3.21l-.18.05H14.8a.37.37,0,0,0-.39.33.36.36,0,0,0,.24.36.24.24,0,0,0,.15,0,1.49,1.49,0,0,0,.63-.14,2.28,2.28,0,0,0,.44-.3h0a1.66,1.66,0,0,1,2.27,0l0,0,0,0a2.71,2.71,0,0,0,.41.28,1.5,1.5,0,0,0,.62.13,1.57,1.57,0,0,0,.64-.14,2.2,2.2,0,0,0,.43-.3h0A1.7,1.7,0,0,1,21.42,18h0a.36.36,0,0,1-.36-.36Z" transform="translate(-0.32 -0.15)"/><path class="cls-3" d="M21.44,17.23h0Z" transform="translate(-0.32 -0.15)"/><path class="cls-3" d="M21.43,17.23h-.07a.35.35,0,0,0-.33.38.36.36,0,0,0,.38.34h0a1.41,1.41,0,0,1,.84.25c.14-.19.28-.39.41-.6a2.13,2.13,0,0,0-1.2-.37Z" transform="translate(-0.32 -0.15)"/><path class="cls-3" d="M9.41,20.89a1.84,1.84,0,0,0,.43.3,1.3,1.3,0,0,0,.64.14,1.35,1.35,0,0,0,.62-.12,3.51,3.51,0,0,0,.4-.27l0,0,0,0a1.63,1.63,0,0,1,2.22,0l0,0a2.57,2.57,0,0,0,.44.29,1.27,1.27,0,0,0,.38.11.36.36,0,0,1,.16-.69h.09a.87.87,0,0,1-.32-.06,1.49,1.49,0,0,1-.29-.2h0l0,0a2.37,2.37,0,0,0-3.1,0l0,0,0,0a1.94,1.94,0,0,1-.29.21.63.63,0,0,1-.3.05.87.87,0,0,1-.32-.06,1.94,1.94,0,0,1-.29-.21h0a2.36,2.36,0,0,0-1.61-.64,2.22,2.22,0,0,0-1.46.51c.2.16.4.32.61.46a1.44,1.44,0,0,1,.85-.25A1.68,1.68,0,0,1,9.41,20.89Z" transform="translate(-0.32 -0.15)"/><path class="cls-3" d="M19.54,20.54a.64.64,0,0,1-.31.07.52.52,0,0,1-.3-.06,2.73,2.73,0,0,1-.3-.21h0l0,0A2.28,2.28,0,0,0,17,19.71a2.38,2.38,0,0,0-1.61.62,1.61,1.61,0,0,1-.3.21.48.48,0,0,1-.18.06H14.8a.36.36,0,0,0-.38.34.35.35,0,0,0,.23.35.33.33,0,0,0,.15,0,1.24,1.24,0,0,0,.63-.14,1.9,1.9,0,0,0,.44-.3h0A1.6,1.6,0,0,1,17,20.43a1.55,1.55,0,0,1,1.12.44l0,0,0,0a2.71,2.71,0,0,0,.41.28l.15.06a11.3,11.3,0,0,0,2.09-1.48,2.6,2.6,0,0,0-1,.54A1.66,1.66,0,0,1,19.54,20.54Z" transform="translate(-0.32 -0.15)"/></g><path class="cls-3" d="M4.66,13.51a.32.32,0,0,1-.25-.1L2.66,11.65.9,13.41a.37.37,0,0,1-.51-.06.36.36,0,0,1,0-.45l2-2a.36.36,0,0,1,.51,0h0l2,2a.36.36,0,0,1,0,.51A.32.32,0,0,1,4.66,13.51Z" transform="translate(-0.32 -0.15)"/><path class="cls-3" d="M24.58,12.28a.39.39,0,0,1-.25-.1l-2-2a.36.36,0,1,1,.51-.51l1.75,1.76,1.76-1.76a.35.35,0,0,1,.5,0,.36.36,0,0,1,0,.51l-2,2A.35.35,0,0,1,24.58,12.28Z" transform="translate(-0.32 -0.15)"/></g><g id="katman_2-2-2" data-name="katman 2-2"><path class="cls-3" d="M13.65,22.93A11.39,11.39,0,0,1,2.26,11.54a.36.36,0,0,1,.72,0,10.67,10.67,0,0,0,20.52,4.1.36.36,0,0,1,.67.26v0A11.35,11.35,0,0,1,13.65,22.93Z" transform="translate(-0.32 -0.15)"/><path class="cls-3" d="M24.67,11.9a.36.36,0,0,1-.36-.36,10.67,10.67,0,0,0-20.57-4,.35.35,0,0,1-.66-.26h0a11.38,11.38,0,0,1,22,4.24A.36.36,0,0,1,24.67,11.9Z" transform="translate(-0.32 -0.15)"/></g></g></g></g></svg>