<svg xmlns="http://www.w3.org/2000/svg" viewBox="0 0 10.89 15"><defs><style>.cls-1{fill:#bfbfbf;}</style></defs><title>tl0</title><g id="katman_2" data-name="katman 2"><g id="katman_1-2" data-name="katman 1"><path class="cls-1" d="M10.89,7v.91a8.84,8.84,0,0,1-.78,3.75A5.82,5.82,0,0,1,8,14.14a6,6,0,0,1-3.2.86,18.66,18.66,0,0,1-2.51-.2V8.65L0,9.53v-2l2.24-.88V5.23L0,6.12v-2L2.24,3.2V0H4.8V2.18l2.28-.91v2L4.8,4.22V5.61L7.08,4.7v2l-2.28.9v5.26a3.09,3.09,0,0,0,2.63-1.3,6.66,6.66,0,0,0,.9-3.81V7Z"/></g></g></svg>