<svg xmlns="http://www.w3.org/2000/svg" viewBox="0 0 9.88 15.8"><defs><style>.cls-1{fill:#0c2a66;}</style></defs><title>vhf</title><g id="katman_2" data-name="katman 2"><g id="katman_1-2" data-name="katman 1"><path class="cls-1" d="M8.89,4h-1V2.47A.49.49,0,0,0,7.41,2h-1a.49.49,0,0,0-.49.49V4H2V.49A.5.5,0,0,0,1.48,0,.49.49,0,0,0,1,.49V4a1,1,0,0,0-1,1v9.88a1,1,0,0,0,1,1h7.9a1,1,0,0,0,1-1V4.94A1,1,0,0,0,8.89,4ZM6.42,13.83h-3a.5.5,0,1,1,0-1h3a.5.5,0,0,1,0,1Zm0-2h-3a.49.49,0,1,1,0-1h3a.49.49,0,0,1,0,1ZM7.9,8.4a.49.49,0,0,1-.49.49H2.47A.49.49,0,0,1,2,8.4v-2a.49.49,0,0,1,.49-.49H7.41a.49.49,0,0,1,.49.49Z"/></g></g></svg>