<svg xmlns="http://www.w3.org/2000/svg" viewBox="0 0 22 22"><defs><style>.cls-1{fill:#e5faf8;}</style></defs><title>zoomBalance_1</title><g id="katman_2" data-name="katman 2"><g id="katman_1-2" data-name="katman 1"><path class="cls-1" d="M22,1V5a1,1,0,0,1-2,0V3.41l-4.29,4.3a1,1,0,0,1-1.41,0h0a1,1,0,0,1,0-1.41h0L18.59,2H17a1,1,0,0,1,0-2h4a1,1,0,0,1,.38.08,1,1,0,0,1,.54.54A1,1,0,0,1,22,1ZM21,16a1,1,0,0,0-1,1v1.59l-4.29-4.3a1,1,0,0,0-1.42,1.42L18.59,20H17a1,1,0,0,0,0,2h4a1,1,0,0,0,.38-.08,1,1,0,0,0,.54-.54A1,1,0,0,0,22,21V17A1,1,0,0,0,21,16ZM1,6A1,1,0,0,0,2,5V3.41l4.29,4.3a1,1,0,0,0,1.41,0h0a1,1,0,0,0,0-1.41h0L3.41,2H5A1,1,0,0,0,5,0H1A1,1,0,0,0,.62.08,1,1,0,0,0,.08.62,1,1,0,0,0,0,1V5A1,1,0,0,0,1,6Zm5.29,8.29L2,18.59V17a1,1,0,0,0-2,0v4a1,1,0,0,0,.08.38,1,1,0,0,0,.54.54A1,1,0,0,0,1,22H5a1,1,0,0,0,0-2H3.41l4.3-4.29a1,1,0,0,0-1.42-1.42ZM13.85,11A2.85,2.85,0,1,0,11,13.85,2.86,2.86,0,0,0,13.85,11Z"/></g></g></svg>